<?xml version="1.0" encoding="utf-8"?>
<!-- Generator: Adobe Illustrator 28.1.0, SVG Export Plug-In . SVG Version: 6.00 Build 0)  -->
<svg version="1.1" id="Layer_1" xmlns="http://www.w3.org/2000/svg" xmlns:xlink="http://www.w3.org/1999/xlink" x="0px" y="0px"
	 viewBox="0 0 187.58 37.32" style="enable-background:new 0 0 187.58 37.32;" xml:space="preserve">
<style type="text/css">
	.st0{fill:#4681f4;}
</style>
<g>
	<path class="st0" d="M16.73,2.34c2.72,0,5.13,0.47,7.22,1.42c2.1,0.94,3.74,2.3,4.92,4.06c1.18,1.76,1.78,3.82,1.78,6.19
		c0,2.37-0.59,4.43-1.78,6.19c-1.18,1.76-2.82,3.11-4.92,4.06c-2.1,0.94-4.5,1.42-7.22,1.42h-3.31v10.27H3.33V2.34H16.73z
		 M15.96,17.56c1.41,0,2.49-0.33,3.24-0.98c0.75-0.66,1.13-1.51,1.13-2.57s-0.38-1.92-1.13-2.59c-0.75-0.67-1.83-1.01-3.24-1.01
		h-2.54v7.15H15.96z"/>
	<path class="st0" d="M64.92,35.94H54.74l-2.02-6.14H41.11l-2.06,6.14H29.01l12.48-33.6h10.94L64.92,35.94z M43.22,22.07h7.39
		l-3.7-10.99L43.22,22.07z"/>
	<path class="st0" d="M70.15,33.49c-2.59-2.08-3.92-5.09-3.98-9.02h9.74c0.06,1.44,0.46,2.56,1.2,3.36c0.74,0.8,1.81,1.2,3.22,1.2
		c2.5,0,3.74-0.88,3.74-2.64c0-0.9-0.46-1.59-1.37-2.09c-0.91-0.5-2.36-1.05-4.34-1.66c-2.27-0.67-4.18-1.38-5.71-2.11
		c-1.54-0.74-2.86-1.83-3.96-3.29c-1.1-1.46-1.66-3.37-1.66-5.74c0-1.92,0.54-3.62,1.63-5.11c1.09-1.49,2.62-2.65,4.58-3.48
		c1.97-0.83,4.23-1.25,6.79-1.25c2.3,0,4.46,0.39,6.46,1.18c2,0.78,3.64,2.04,4.92,3.77c1.28,1.73,1.94,3.92,1.97,6.58h-9.46
		c0-1.12-0.31-2.06-0.94-2.81c-0.62-0.75-1.59-1.13-2.9-1.13c-0.99,0-1.77,0.22-2.33,0.67c-0.56,0.45-0.84,1.07-0.84,1.87
		c0,0.9,0.46,1.59,1.37,2.09c0.91,0.5,2.38,1.03,4.39,1.61c2.3,0.7,4.21,1.41,5.71,2.11c1.5,0.7,2.81,1.78,3.91,3.24
		c1.1,1.46,1.66,3.37,1.66,5.74c0,1.82-0.52,3.5-1.56,5.02c-1.04,1.52-2.58,2.74-4.63,3.65c-2.05,0.91-4.51,1.37-7.39,1.37
		C76.15,36.61,72.74,35.57,70.15,33.49z"/>
	<path class="st0" d="M114.16,35.94h-10.08V11.27h-8.06V2.34h26.21v8.93h-8.06V35.94z"/>
	<path class="st0" d="M131.16,35.94h-8.02v-8.5h8.02V35.94z"/>
	<path class="st0" d="M170.04,35.94h-10.18l-2.02-6.14h-11.62l-2.06,6.14h-10.03l12.48-33.6h10.94L170.04,35.94z M148.34,22.07h7.39
		l-3.7-10.99L148.34,22.07z"/>
	<path class="st0" d="M184.25,35.94h-10.08V2.34h10.08V35.94z"/>
</g>
</svg>
